<?xml version="1.0" standalone="no"?>
<!DOCTYPE svg PUBLIC "-//W3C//DTD SVG 20010904//EN"
 "http://www.w3.org/TR/2001/REC-SVG-20010904/DTD/svg10.dtd">
<svg version="1.0" xmlns="http://www.w3.org/2000/svg"
 width="256.000000pt" height="256.000000pt" viewBox="0 0 256.000000 256.000000"
 preserveAspectRatio="xMidYMid meet">
<metadata>
Created by potrace 1.14, written by Peter Selinger 2001-2017
</metadata>
<g transform="translate(0.000000,256.000000) scale(0.100000,-0.100000)"
fill="#000000" stroke="none">
<path d="M375 2398 c-57 -45 -55 -6 -55 -1038 l0 -950 -53 0 c-29 0 -58 -5
-65 -12 -17 -17 -17 -229 0 -246 16 -16 1569 -17 1599 -2 17 10 19 22 19 120
0 129 -6 140 -81 140 l-49 0 0 495 0 495 83 0 c45 0 89 -5 97 -10 13 -8 16
-61 20 -347 5 -369 5 -368 69 -436 87 -95 261 -91 336 7 55 73 55 69 55 559 0
513 3 493 -78 579 l-47 50 75 70 75 69 -73 68 -74 69 -116 22 -115 22 -17 -22
-17 -22 -77 67 c-72 62 -82 68 -134 74 l-57 6 -6 58 c-7 63 -30 104 -70 124
-18 10 -167 13 -620 13 l-596 0 -28 -22z m1147 -144 c17 -16 18 -38 18 -296 0
-173 -4 -287 -10 -299 -10 -18 -27 -19 -518 -19 -382 0 -511 3 -520 12 -9 9
-12 90 -12 305 0 268 1 293 18 302 10 6 201 10 511 11 448 0 496 -1 513 -16z
m306 -180 l62 -56 -25 -30 c-14 -16 -25 -34 -25 -40 0 -17 242 -258 259 -258
8 0 25 10 38 22 l23 22 36 -35 c66 -63 64 -44 64 -524 0 -481 -1 -487 -62
-525 -46 -29 -127 -23 -164 11 -49 45 -49 47 -54 406 l-5 343 -38 37 -37 38
-105 3 -105 4 0 319 0 319 38 0 c31 0 47 -9 100 -56z m328 -20 c41 -6 58 -16
104 -60 l55 -53 -27 -27 -26 -27 -91 84 c-86 79 -109 108 -77 96 7 -3 35 -9
62 -13z m-1104 -691 c116 -121 170 -311 118 -413 -62 -121 -242 -131 -318 -18
-50 76 -38 206 29 324 34 60 106 144 123 144 6 0 28 -17 48 -37z"/>
<path d="M1191 2090 c-73 -60 -87 -67 -108 -59 -49 18 -127 10 -184 -18 -88
-45 -144 -154 -124 -243 l7 -30 223 0 c249 0 235 -4 235 73 0 42 -38 138 -59
152 -7 4 19 32 69 72 68 56 81 70 78 92 -6 48 -44 38 -137 -39z"/>
</g>
</svg>
